<svg width="501" height="320" viewBox="0 0 501 320" fill="none" xmlns="http://www.w3.org/2000/svg">
<path d="M154.115 8.62207L122.908 83.5581H135.615V58.3311H175.045V83.5581H189.994V114.392H175.045V139.807H135.615V114.392H79.7402V86.3611L113.378 8.62207H154.115Z" fill="#195EE6"/>
<path d="M301.186 74.215C301.186 117.196 282.312 140.929 248.301 140.929C213.916 140.929 195.228 117.197 195.228 74.215C195.228 31.234 213.916 7.50098 248.301 7.50098C282.312 7.50098 301.186 31.234 301.186 74.215ZM236.153 74.215C236.153 101.685 238.957 111.776 248.301 111.776C257.459 111.776 260.261 101.685 260.261 74.215C260.261 46.558 257.459 36.653 248.301 36.653C238.957 36.653 236.153 46.558 236.153 74.215Z" fill="#195EE6"/>
<path d="M384.721 8.62207L353.514 83.5581H366.22V58.3311H405.65V83.5581H420.6V114.392H405.65V139.807H366.22V114.392H310.346V86.3611L343.982 8.62207H384.721Z" fill="#195EE6"/>
<path d="M221.587 289.846C236.446 289.846 248.491 285.317 248.491 279.73C248.491 274.143 236.446 269.614 221.587 269.614C206.728 269.614 194.683 274.143 194.683 279.73C194.683 285.317 206.728 289.846 221.587 289.846Z" fill="#B3EFF4"/>
<path d="M280.087 289.846C294.946 289.846 306.991 285.317 306.991 279.73C306.991 274.143 294.946 269.614 280.087 269.614C265.228 269.614 253.183 274.143 253.183 279.73C253.183 285.317 265.228 289.846 280.087 289.846Z" fill="#B3EFF4"/>
<path d="M500.075 219.314C500.075 219.314 388.28 236.66 371.627 189.478C355.561 143.957 355.116 108.326 344.823 99.3301" stroke="#485F66" stroke-miterlimit="10"/>
<path d="M0.0751953 219.314C0.0751953 219.314 112.06 236.66 128.713 189.478C144.779 143.957 145.224 108.326 155.517 99.3301" stroke="#485F66" stroke-miterlimit="10"/>
<path d="M277.822 235.819L273.199 266.738H262.967L258.336 235.819H277.822Z" fill="#395156"/>
<path d="M273.215 235.819L268.592 266.738H262.967L258.336 235.819H273.215Z" fill="#485F66"/>
<path d="M271.86 285.134L289.258 280.759L273.849 266.046H263.012V271.116L271.86 285.134Z" fill="#395156"/>
<path d="M276.203 222.575L263.304 224.65L262.51 224.778L256.774 225.699L256.597 225.002L246.774 186.576L254.314 185.574L255.107 185.47L265.467 184.1L269.914 183.507L276.203 222.575Z" fill="#395156"/>
<path d="M271.66 222.575L258.761 224.65L257.967 224.778L256.597 225.002L246.774 186.576L254.314 185.574L255.107 185.47L265.467 184.1L271.66 222.575Z" fill="#485F66"/>
<path d="M256.562 229.471L277.506 226.098L276.694 221.056L255.75 224.429L256.562 229.471Z" fill="#395156"/>
<path d="M278.511 230.979L275.322 231.324L257.423 233.263L256.87 228.183L274.769 226.244L277.958 225.9L278.511 230.979Z" fill="#395156"/>
<path d="M274.777 226.247L256.877 228.186L257.428 233.266L275.327 231.327L274.777 226.247Z" fill="#485F66"/>
<path d="M257.454 237.86L278.597 236.127L278.18 231.038L257.037 232.771L257.454 237.86Z" fill="#395156"/>
<path d="M289.258 280.759V284.537L271.86 285.134L289.258 280.759Z" fill="#485F66"/>
<path d="M268.255 271.144L267.454 271.217L263.985 231.821L262.51 224.778L254.314 185.574L255.107 185.47L263.304 224.65L264.778 231.7L268.255 271.144Z" fill="#395156"/>
<path d="M239.483 235.819L234.86 266.738H224.621L219.998 235.819H239.483Z" fill="#395156"/>
<path d="M235.742 235.819L231.119 266.738H224.621L219.998 235.819H235.742Z" fill="#485F66"/>
<path d="M225.962 285.134L208.564 280.759L224.508 265.911L234.811 266.046V271.116L225.962 285.134Z" fill="#395156"/>
<path d="M251.349 186.576L241.35 225.699L237.56 225.09L236.319 224.89L235.533 224.762L221.913 222.575L228.122 184.02L228.202 183.507L243.722 185.566L244.523 185.67L251.349 186.576Z" fill="#395156"/>
<path d="M247.407 186.576L237.56 225.09L236.319 224.89L235.533 224.762L221.913 222.575L228.122 184.02L239.78 185.566L240.581 185.67L247.407 186.576Z" fill="#485F66"/>
<path d="M242.055 224.425L241.246 229.465L220.302 226.092L221.111 221.052L235.814 223.424L236.599 223.544L242.055 224.425Z" fill="#395156"/>
<path d="M240.95 228.183L240.405 233.263L236.839 232.878L219.317 230.979L219.861 225.9L237.384 227.798L240.95 228.183Z" fill="#395156"/>
<path d="M237.384 227.798L236.839 232.878L219.317 230.979L219.861 225.9L237.384 227.798Z" fill="#485F66"/>
<path d="M240.763 232.796L219.62 231.063L219.203 236.152L240.346 237.885L240.763 232.796Z" fill="#395156"/>
<path d="M208.564 280.759V284.504L225.962 285.134L208.564 280.759Z" fill="#485F66"/>
<path d="M233.715 235.819H234.516L231.792 266.738H230.99L233.715 235.819Z" fill="#395156"/>
<path d="M244.523 185.67L236.599 223.544L235.814 223.424L243.722 185.566L244.523 185.67Z" fill="#395156"/>
<path d="M249.026 2.62012H247.774V22.0501H249.026V2.62012Z" fill="#6D8189"/>
<path d="M254.434 27.5921H243.167V26.5661C243.167 23.4551 245.689 20.9321 248.801 20.9321C251.912 20.9321 254.435 23.4541 254.435 26.5661V27.5921H254.434Z" fill="#485F66"/>
<path d="M302.627 118.143L308.257 126.264L336.774 106.495L331.144 98.3735L302.627 118.143Z" fill="#485F66"/>
<path d="M269.453 121.026L301.544 128.829L304.411 118.36L267.602 102.789L269.453 121.026Z" fill="#485F66"/>
<path d="M297.548 123.287C297.548 126.495 300.149 129.096 303.357 129.096C306.565 129.096 309.166 126.495 309.166 123.287C309.166 120.079 306.565 117.478 303.357 117.478C300.149 117.478 297.548 120.079 297.548 123.287Z" fill="#6D8189"/>
<path d="M299.918 123.287C299.918 125.186 301.457 126.726 303.356 126.726C305.255 126.726 306.795 125.186 306.795 123.287C306.795 121.388 305.256 119.848 303.356 119.848C301.458 119.849 299.918 121.388 299.918 123.287Z" fill="#485F66"/>
<path d="M336.318 85.9238L332.807 89.6378C328.823 93.8518 329.011 100.501 333.225 104.484C337.439 108.468 344.087 108.281 348.071 104.066L351.582 100.351L347.578 96.5658L344.197 100.143C342.301 102.149 339.146 102.237 337.14 100.341C335.134 98.4448 335.038 95.2828 336.934 93.2768L340.315 89.6998L336.318 85.9238Z" fill="#6D8189"/>
<path d="M165.852 98.3506L160.223 106.472L188.74 126.241L194.37 118.12L165.852 98.3506Z" fill="#485F66"/>
<path d="M227.546 121.026L195.454 128.829L192.587 118.36L229.396 103.232L227.546 121.026Z" fill="#485F66"/>
<path d="M268.455 32.7181V80.5751C268.455 85.7991 264.217 90.0371 258.993 90.0371H238.858C233.634 90.0371 229.396 85.7991 229.396 80.5751V34.9931C229.396 30.1781 233.009 26.1311 237.793 25.5951L254.627 23.6961L257.936 23.3191C263.544 22.6861 268.455 27.0771 268.455 32.7181Z" fill="#63797F"/>
<path d="M261.244 32.7178V80.5748C261.244 85.7988 257.006 90.0368 251.782 90.0368H238.858C233.634 90.0368 229.396 85.7988 229.396 80.5748V34.9928C229.396 30.1778 233.009 26.1308 237.793 25.5948L254.627 23.6958C258.432 24.8898 261.244 28.4388 261.244 32.7178Z" fill="#6D8189"/>
<path d="M255.903 94.9112H240.947C240.431 94.9112 240.012 94.4922 240.012 93.9762V90.9052C240.012 90.3892 240.431 89.9702 240.947 89.9702H255.903C256.419 89.9702 256.838 90.3892 256.838 90.9052V93.9762C256.838 94.4922 256.419 94.9112 255.903 94.9112Z" fill="#485F66"/>
<path d="M254.833 99.5181H242.016C241.536 99.5181 241.147 99.1291 241.147 98.6491V95.4471C241.147 94.9671 241.536 94.5781 242.016 94.5781H254.833C255.313 94.5781 255.703 94.9671 255.703 95.4471V98.6491C255.703 99.1291 255.313 99.5181 254.833 99.5181Z" fill="#395156"/>
<path d="M255.619 104.025H241.23C240.723 104.025 240.312 103.614 240.312 103.107V100.002C240.312 99.495 240.723 99.084 241.23 99.084H255.619C256.126 99.084 256.537 99.495 256.537 100.002V103.107C256.537 103.614 256.126 104.025 255.619 104.025Z" fill="#485F66"/>
<path d="M276.083 114.738L274.168 155.272L274.128 156.073L273.006 179.773L272.693 186.479L272.196 196.935H226.055L225.558 186.479L225.245 179.773L223.931 151.995L223.891 151.194L222.168 114.739C221.848 108.065 226.615 102.456 232.608 102.456H265.642C271.636 102.456 276.404 108.064 276.083 114.738Z" fill="#63797F"/>
<path d="M266.068 114.738L264.153 155.272L264.113 156.073L262.991 179.773L262.678 186.479L262.181 196.935H226.055L225.558 186.479L225.245 179.773L223.931 151.995L223.891 151.194L222.168 114.739C221.848 108.065 226.615 102.456 232.608 102.456H255.627C261.621 102.456 266.388 108.064 266.068 114.738Z" fill="#6D8189"/>
<path d="M199.45 123.287C199.45 126.495 196.849 129.096 193.641 129.096C190.433 129.096 187.832 126.495 187.832 123.287C187.832 120.079 190.433 117.478 193.641 117.478C196.85 117.478 199.45 120.079 199.45 123.287Z" fill="#6D8189"/>
<path d="M193.642 126.241C195.273 126.241 196.596 124.918 196.596 123.287C196.596 121.656 195.273 120.333 193.642 120.333C192.011 120.333 190.688 121.656 190.688 123.287C190.688 124.918 192.011 126.241 193.642 126.241Z" fill="#485F66"/>
<path d="M160.68 85.9238L164.191 89.6378C168.175 93.8518 167.987 100.501 163.773 104.484C159.559 108.468 152.911 108.281 148.927 104.066L145.416 100.351L149.42 96.5658L152.801 100.143C154.697 102.149 157.852 102.237 159.858 100.341C161.864 98.4448 161.96 95.2828 160.064 93.2768L156.683 89.6998L160.68 85.9238Z" fill="#6D8189"/>
<path d="M250.211 1.853C250.211 2.876 249.381 3.706 248.358 3.706C247.335 3.706 246.505 2.876 246.505 1.853C246.505 0.829997 247.335 0 248.358 0C249.381 0 250.211 0.828997 250.211 1.853Z" fill="#29CCE5"/>
<path d="M261.545 73.0108C252.865 67.6028 244.185 78.4188 235.505 73.0108C235.505 72.1098 235.505 71.2078 235.505 70.3068C244.185 75.7148 252.865 64.8988 261.545 70.3068C261.545 71.2078 261.545 72.1098 261.545 73.0108Z" fill="#485F66"/>
<path d="M246.258 59.296C249.856 55.6977 249.856 49.8638 246.258 46.2655C242.659 42.6673 236.825 42.6673 233.227 46.2655C229.629 49.8638 229.629 55.6977 233.227 59.296C236.825 62.8942 242.659 62.8942 246.258 59.296Z" fill="#63797F"/>
<path d="M266.542 54.9204C267.716 49.969 264.654 45.0035 259.702 43.8295C254.751 42.6555 249.785 45.7177 248.612 50.6691C247.438 55.6204 250.5 60.586 255.451 61.7599C260.402 62.9339 265.368 59.8717 266.542 54.9204Z" fill="#63797F"/>
<path d="M257.965 43.5664H239.662V61.9824H257.965V43.5664Z" fill="#63797F"/>
<path d="M242.015 47.9731H237.809V57.6881H242.015V47.9731Z" fill="#F7BC14"/>
<path d="M241.564 48.7241H238.259V56.9361H241.564V48.7241Z" fill="#29CCE5"/>
<path d="M260.344 47.9731H256.137V57.6881H260.344V47.9731Z" fill="#F7BC14"/>
<path d="M233.762 46.4602L232.501 44.7682L242.857 36.3662L244.957 40.0112L233.762 46.4602Z" fill="#485F66"/>
<path d="M264.394 46.4602L265.655 44.7682L255.299 36.3662L253.199 40.0112L264.394 46.4602Z" fill="#485F66"/>
<path d="M266.386 117.879H231.266V139.913H266.386V117.879Z" fill="#63797F"/>
<path d="M262.98 120.016H234.671V137.776H262.98V120.016Z" fill="#485F66"/>
<path d="M260.408 123.586H237.243V124.705H260.408V123.586Z" fill="#29CCE5"/>
<path d="M256.783 126.67H240.868V127.789H256.783V126.67Z" fill="#29CCE5"/>
<path d="M258.533 129.42H239.118V130.539H258.533V129.42Z" fill="#29CCE5"/>
<path d="M274.168 155.272L274.128 156.073H254.899V146.322H237.873V151.995H223.932L223.892 151.194H237.072V145.521H255.7V155.272H274.168Z" fill="#485F66"/>
<path d="M237.475 152.866C238.286 152.866 238.944 152.209 238.944 151.397C238.944 150.586 238.286 149.928 237.475 149.928C236.664 149.928 236.006 150.586 236.006 151.397C236.006 152.209 236.664 152.866 237.475 152.866Z" fill="#485F66"/>
<path d="M238.476 145.788C238.476 146.341 238.028 146.79 237.475 146.79C236.922 146.79 236.473 146.342 236.473 145.788C236.473 145.235 236.921 144.786 237.475 144.786C238.029 144.786 238.476 145.235 238.476 145.788Z" fill="#485F66"/>
<path d="M256.304 145.788C256.304 146.341 255.856 146.79 255.302 146.79C254.749 146.79 254.3 146.342 254.3 145.788C254.3 145.235 254.748 144.786 255.302 144.786C255.855 144.787 256.304 145.235 256.304 145.788Z" fill="#485F66"/>
<path d="M256.304 155.403C256.304 155.956 255.856 156.404 255.302 156.404C254.749 156.404 254.3 155.956 254.3 155.403C254.3 154.85 254.748 154.402 255.302 154.402C255.855 154.401 256.304 154.85 256.304 155.403Z" fill="#485F66"/>
<path d="M259.859 48.7241H256.554V56.9361H259.859V48.7241Z" fill="#29CCE5"/>
<path d="M273.463 186.383H224.589V201.105H273.463V186.383Z" fill="#395156"/>
<path d="M256.861 186.383H224.589V201.105H256.861V186.383Z" fill="#485F66"/>
<path d="M273.006 179.773L272.694 186.48H225.558L225.246 179.773H273.006Z" fill="#63797F"/>
<path d="M155.517 99.3301C155.893 99.0021 156.281 98.7091 156.684 98.4521C168.133 91.1661 167.872 119.007 167.872 119.007" stroke="#485F66" stroke-miterlimit="10"/>
<path d="M166.661 123.204H165.49V127.53H166.661V123.204Z" fill="#485F66"/>
<path d="M170.662 123.204H169.491V127.53H170.662V123.204Z" fill="#485F66"/>
<path d="M172.374 121.48V124.602H163.787V121.48C163.787 119.107 165.702 117.181 168.075 117.181C169.262 117.181 170.334 117.66 171.114 118.44C171.218 118.544 171.322 118.659 171.416 118.773C172.02 119.513 172.374 120.46 172.374 121.48Z" fill="#485F66"/>
<path d="M172.374 121.48V124.602H165.016V122.52C165.016 120.147 166.941 118.222 169.314 118.222C170.074 118.222 170.792 118.42 171.416 118.774C172.02 119.513 172.374 120.46 172.374 121.48Z" fill="#6D8189"/>
<path d="M344.824 99.3301C344.448 99.0021 344.06 98.7091 343.657 98.4521C332.208 91.1661 332.468 119.007 332.468 119.007" stroke="#485F66" stroke-miterlimit="10"/>
<path d="M327.966 121.48V124.602H336.552V121.48C336.552 119.107 334.637 117.181 332.264 117.181C331.077 117.181 330.006 117.66 329.225 118.44C329.121 118.544 329.017 118.659 328.923 118.773C328.32 119.513 327.966 120.46 327.966 121.48Z" fill="#485F66"/>
<path d="M327.966 121.48V124.602H335.324V122.52C335.324 120.147 333.398 118.222 331.026 118.222C330.266 118.222 329.548 118.42 328.924 118.774C328.32 119.513 327.966 120.46 327.966 121.48Z" fill="#6D8189"/>
<path d="M164.078 142.433L163.035 142.505L162.837 140.211L161.786 143.608L162.83 143.536L163.027 145.83L164.078 142.433Z" fill="#29CCE5"/>
<path d="M182.591 131.966L181.563 133.172L178.871 130.956L181.435 135.691L182.463 134.486L185.156 136.702L182.591 131.966Z" fill="#29CCE5"/>
<path d="M178.174 143.337L176.447 144.295L174.272 140.533L175.198 147.181L176.924 146.222L179.1 149.984L178.174 143.337Z" fill="#29CCE5"/>
<path d="M322.712 130.154L321.825 129.601L323.008 127.626L320.167 129.764L321.055 130.317L319.872 132.291L322.712 130.154Z" fill="#29CCE5"/>
<path d="M343.849 132.511L342.31 132.886L341.425 129.513L340.73 134.853L342.269 134.478L343.154 137.851L343.849 132.511Z" fill="#29CCE5"/>
<path d="M333.609 139.141L331.649 138.907L332.088 134.583L328.946 140.514L330.906 140.748L330.467 145.072L333.609 139.141Z" fill="#29CCE5"/>
</svg>
