<svg width="600" height="600" viewBox="0 0 600 600" fill="none" xmlns="http://www.w3.org/2000/svg">
<circle cx="297" cy="133" r="50" stroke="#29CCE5" stroke-width="20"/>
<path d="M413 251.227C429.467 255.055 474 255.694 493.376 290.989C512.752 326.285 493.376 385.259 449.5 422.759C392 466.759 356.738 479.083 298 484.924" stroke="#195EE6" stroke-width="20"/>
<path d="M190.025 251.227C173.557 255.055 129.024 255.694 109.649 290.989C90.2727 326.285 109.648 385.259 153.524 422.759C211.024 466.759 246.286 479.083 305.024 484.924" stroke="#195EE6" stroke-width="20"/>
<circle cx="120" cy="224" r="30" stroke="#195EE6" stroke-width="20"/>
<circle cx="474" cy="224" r="30" stroke="#195EE6" stroke-width="20"/>
<path d="M300 0C465.685 0 600 134.315 600 300C600 461.498 472.388 593.189 312.5 599.742V600H287.5V491.791C284.214 491.024 281.19 490.052 278.398 488.964C227.387 469.078 197.877 423.78 182.73 378.433C167.635 333.238 166.052 285.841 172.829 258.722C176.319 244.757 182.375 234.127 190.234 226.376C198.081 218.638 207.268 214.221 216.343 211.962C220.356 210.963 224.375 210.378 228.301 210.11C230.169 198.151 240.516 189 253 189C266.807 189 278 200.193 278 214C278 227.807 266.807 239 253 239C245.25 239 238.325 235.474 233.739 229.938C229.631 229.924 225.353 230.33 221.174 231.37C214.992 232.909 209.175 235.787 204.277 240.616C199.392 245.434 194.963 252.646 192.232 263.571C186.569 286.234 187.535 329.687 201.7 372.097C215.814 414.354 242.275 453.415 285.663 470.329C293.491 473.381 305.017 475.714 323.491 470.266C357.786 454.317 385.517 410.492 400.358 363.096C407.718 339.593 411.621 316.053 411.666 296.038C411.712 275.606 407.74 260.575 401.209 252.377C394.589 244.067 388.626 236.676 380.247 232.45C375.623 230.118 369.761 228.538 361.906 229.122C357.34 235.124 350.123 239 342 239C328.193 239 317 227.807 317 214C317 200.193 328.193 189 342 189C354.101 189 364.192 197.597 366.502 209.017C375.034 209.206 382.555 211.214 389.254 214.593C402.189 221.117 410.727 232.225 416.853 239.915C427.648 253.467 431.715 274.124 431.666 296.083C431.616 318.458 427.291 344.013 419.444 369.072C403.959 418.525 373.598 469.464 331.169 488.75L330.562 489.026L329.923 489.219C323.624 491.122 317.834 492.317 312.5 492.956V574.72C458.577 568.185 575 447.689 575 300C575 148.122 451.878 25 300 25C148.122 25 25 148.122 25 300C25 434.1 120.985 545.782 248 570.09V595.508C107.1 570.885 0 447.95 0 300C0 134.315 134.315 0 300 0Z" fill="#29CCE5"/>
</svg>
